<svg xmlns="http://www.w3.org/2000/svg" version="1.0" width="1298.000000pt" height="893.000000pt" viewBox="0 0 1298.000000 893.000000" preserveAspectRatio="xMidYMid meet" transform="matrix(1, 0, 0, 1, 0, 0)">

<g transform="translate(0.000000,893.000000) scale(0.100000,-0.100000)" fill="#f8f9f8" stroke="none">
<path d="M36 8904 l-26 -27 0 -173 0 -174 389 0 c270 0 392 3 397 11 3 6 -9 26 -27 45 l-33 34 21 28 c47 64 65 115 71 199 l5 83 -385 0 -385 0 -27 -26z" fill="#f8f9f8"/>
<path d="M996 8908 c-19 -71 4 -171 56 -246 l30 -44 -32 -33 c-18 -18 -29 -38 -26 -44 5 -7 62 -11 165 -11 172 0 234 12 302 57 93 62 155 201 135 307 l-7 36 -308 0 -309 0 -6 -22z" fill="#f8f9f8"/>
<path d="M1795 8898 c-3 -18 -5 -235 -3 -483 l3 -450 25 -50 c31 -64 92 -124 155 -156 l50 -24 979 -3 c657 -2 983 1 990 8 7 7 -1 21 -24 45 l-34 35 21 28 c11 15 31 48 44 72 l24 45 3 450 c2 248 0 465 -3 483 l-6 32 -1109 0 -1109 0 -6 -32z" fill="#f8f9f8"/>
<path d="M4196 8908 c-19 -71 4 -171 56 -246 l30 -44 -32 -33 c-18 -18 -29 -38 -26 -44 5 -8 174 -11 565 -11 606 0 618 1 702 57 93 62 155 201 135 307 l-7 36 -708 0 -709 0 -6 -22z" fill="#f8f9f8"/>
<path d="M5796 8908 c-19 -71 4 -171 56 -246 l30 -44 -32 -33 c-18 -18 -29 -38 -26 -44 5 -8 286 -11 965 -11 1044 0 1014 -2 1102 57 93 62 155 201 135 307 l-7 36 -1108 0 -1109 0 -6 -22z" fill="#f8f9f8"/>
<path d="M8192 8848 c8 -135 70 -233 183 -289 l50 -24 579 -3 c390 -2 583 1 590 8 7 7 -1 21 -24 45 l-34 35 21 28 c47 64 65 115 71 199 l5 83 -723 0 -723 0 5 -82z" fill="#f8f9f8"/>
<path d="M9796 8908 c-19 -71 4 -171 56 -246 l30 -44 -32 -33 c-18 -18 -29 -38 -26 -44 5 -7 62 -11 165 -11 172 0 234 12 302 57 93 62 155 201 135 307 l-7 36 -308 0 -309 0 -6 -22z" fill="#f8f9f8"/>
<path d="M10596 8908 c-3 -13 -6 -222 -6 -465 0 -486 1 -492 62 -581 l30 -44 -32 -33 c-18 -18 -29 -38 -26 -44 5 -8 286 -11 965 -11 844 0 964 2 1011 16 95 28 148 74 201 174 l24 45 3 450 c2 248 0 465 -3 483 l-6 32 -1108 0 -1109 0 -6 -22z" fill="#f8f9f8"/>
<path d="M416 8353 c-278 -85 -304 -464 -41 -594 l50 -24 579 -3 c390 -2 583 1 590 8 7 7 -1 21 -24 45 l-34 35 21 28 c90 122 94 261 12 385 -38 58 -96 99 -169 121 -78 23 -909 23 -984 -1z" fill="#f8f9f8"/>
<path d="M4416 8353 c-65 -19 -126 -62 -165 -115 -63 -86 -62 -58 -59 -1009 l3 -864 24 -45 c13 -24 33 -57 44 -72 l21 -28 -33 -34 c-18 -19 -30 -39 -27 -45 5 -8 174 -11 565 -11 483 0 565 2 612 16 93 28 160 88 209 189 23 46 28 1724 6 1799 -32 110 -109 188 -216 220 -78 23 -909 23 -984 -1z" fill="#f8f9f8"/>
<path d="M6016 8353 c-211 -64 -291 -306 -164 -491 l30 -44 -32 -33 c-18 -18 -29 -38 -26 -44 5 -7 62 -11 165 -11 172 0 234 12 302 57 107 71 162 220 126 344 -53 179 -227 276 -401 222z" fill="#f8f9f8"/>
<path d="M6816 8353 c-278 -85 -304 -464 -41 -594 l50 -24 579 -3 c390 -2 583 1 590 8 7 7 -1 21 -24 45 l-34 35 21 28 c90 122 94 261 12 385 -38 58 -96 99 -169 121 -78 23 -909 23 -984 -1z" fill="#f8f9f8"/>
<path d="M8416 8353 c-211 -64 -291 -306 -164 -491 l30 -44 -32 -33 c-18 -18 -29 -38 -26 -44 5 -8 286 -11 965 -11 1044 0 1014 -2 1102 57 72 47 126 140 135 231 12 107 -44 232 -130 291 -90 63 -66 61 -990 60 -722 0 -848 -3 -890 -16z" fill="#f8f9f8"/>
<path d="M13 8050 c0 -99 0 -102 10 -52 7 35 7 69 0 105 -10 49 -10 46 -10 -53z" fill="#f8f9f8"/>
<path d="M10 7250 l0 -320 389 0 c270 0 392 3 397 11 3 6 -9 26 -27 45 l-33 34 21 28 c90 122 94 261 12 385 -17 26 -50 61 -73 76 -79 55 -123 61 -418 61 l-268 0 0 -320z" fill="#f8f9f8"/>
<path d="M1226 7553 c-211 -64 -291 -306 -164 -491 l30 -44 -32 -33 c-18 -18 -29 -38 -26 -44 5 -8 174 -11 565 -11 606 0 618 1 702 57 107 71 162 220 126 344 -33 113 -109 191 -217 223 -78 23 -909 23 -984 -1z" fill="#f8f9f8"/>
<path d="M2816 7553 c-278 -85 -304 -464 -41 -594 l50 -24 579 -3 c390 -2 583 1 590 8 7 7 -1 21 -24 45 l-34 35 21 28 c90 122 94 261 12 385 -38 58 -96 99 -169 121 -78 23 -909 23 -984 -1z" fill="#f8f9f8"/>
<path d="M6016 7553 c-102 -31 -183 -111 -212 -210 -13 -43 -14 -125 -12 -515 l3 -463 24 -45 c13 -24 33 -57 44 -72 l21 -28 -33 -34 c-18 -19 -30 -39 -27 -45 5 -8 174 -11 565 -11 483 0 565 2 612 16 93 28 160 88 209 189 23 46 28 924 6 999 -32 110 -109 188 -216 220 -78 23 -909 23 -984 -1z" fill="#f8f9f8"/>
<path d="M7616 7553 c-278 -85 -304 -464 -41 -594 46 -22 63 -24 229 -27 205 -5 218 0 166 53 l-34 35 21 28 c90 122 94 261 12 385 -73 111 -220 161 -353 120z" fill="#f8f9f8"/>
<path d="M8416 7553 c-211 -64 -291 -306 -164 -491 l30 -44 -32 -33 c-18 -18 -29 -38 -26 -44 5 -8 174 -11 565 -11 606 0 618 1 702 57 107 71 162 220 126 344 -33 113 -109 191 -217 223 -78 23 -909 23 -984 -1z" fill="#f8f9f8"/>
<path d="M10016 7553 c-278 -85 -304 -464 -41 -594 46 -22 63 -24 229 -27 205 -5 218 0 166 53 l-34 35 21 28 c90 122 94 261 12 385 -73 111 -220 161 -353 120z" fill="#f8f9f8"/>
<path d="M10816 7553 c-278 -85 -304 -464 -41 -594 l50 -24 984 -3 c661 -2 988 1 995 8 7 7 -1 21 -24 45 l-34 35 21 28 c90 122 94 261 12 385 -38 58 -96 99 -169 121 -47 14 -151 16 -899 15 -727 0 -853 -3 -895 -16z" fill="#f8f9f8"/>
<path d="M416 6753 c-65 -19 -126 -62 -165 -115 -59 -80 -61 -97 -61 -589 0 -493 1 -498 62 -587 l30 -44 -32 -33 c-18 -18 -29 -38 -26 -44 5 -8 174 -11 565 -11 479 0 565 2 611 16 95 28 148 74 201 174 l24 45 3 458 c3 506 2 518 -59 610 -38 58 -96 99 -169 121 -78 23 -909 23 -984 -1z" fill="#f8f9f8"/>
<path d="M2016 6753 c-234 -71 -301 -361 -124 -534 74 -73 134 -89 334 -89 106 0 165 4 170 11 3 6 -9 26 -27 45 l-33 34 21 28 c90 122 94 261 12 385 -73 111 -220 161 -353 120z" fill="#f8f9f8"/>
<path d="M2816 6753 c-218 -66 -293 -316 -153 -505 l21 -28 -33 -34 c-18 -19 -30 -39 -27 -45 5 -8 174 -11 565 -11 619 0 623 0 712 66 138 101 167 288 68 437 -38 58 -96 99 -169 121 -78 23 -909 23 -984 -1z" fill="#f8f9f8"/>
<path d="M7616 6753 c-218 -66 -293 -316 -153 -505 l21 -28 -33 -34 c-18 -19 -30 -39 -27 -45 5 -8 174 -11 565 -11 619 0 623 0 712 66 138 101 167 288 68 437 -38 58 -96 99 -169 121 -78 23 -909 23 -984 -1z" fill="#f8f9f8"/>
<path d="M9216 6753 c-65 -19 -126 -62 -165 -115 -59 -80 -61 -97 -61 -589 0 -493 1 -498 62 -587 l30 -44 -32 -33 c-18 -18 -29 -38 -26 -44 5 -8 174 -11 565 -11 479 0 565 2 611 16 95 28 148 74 201 174 l24 45 3 458 c3 506 2 518 -59 610 -38 58 -96 99 -169 121 -78 23 -909 23 -984 -1z" fill="#f8f9f8"/>
<path d="M10816 6753 c-234 -71 -301 -361 -124 -534 33 -33 65 -53 110 -68 60 -20 79 -21 624 -21 394 0 565 3 570 11 3 6 -9 26 -27 45 l-33 34 21 28 c90 122 94 261 12 385 -38 58 -96 99 -169 121 -78 23 -909 23 -984 -1z" fill="#f8f9f8"/>
<path d="M12426 6753 c-102 -31 -183 -111 -212 -209 -12 -43 -14 -127 -12 -515 l3 -464 25 -50 c31 -64 92 -124 155 -156 49 -23 57 -24 323 -27 l272 -3 0 720 0 721 -252 -1 c-196 0 -264 -4 -302 -16z" fill="#f8f9f8"/>
<path d="M11 6450 c0 -88 3 -120 10 -108 18 32 21 140 6 188 -15 45 -15 44 -16 -80z" fill="#f8f9f8"/>
<path d="M2016 5953 c-211 -64 -291 -306 -164 -491 l30 -44 -32 -33 c-18 -18 -29 -38 -26 -44 5 -8 174 -11 565 -11 606 0 618 1 702 57 107 71 162 220 126 344 -33 113 -109 191 -217 223 -78 23 -909 23 -984 -1z" fill="#f8f9f8"/>
<path d="M3626 5953 c-278 -85 -304 -464 -41 -594 46 -22 63 -24 229 -27 205 -5 218 0 166 53 l-34 35 21 28 c90 122 94 261 12 385 -73 111 -220 161 -353 120z" fill="#f8f9f8"/>
<path d="M4416 5953 c-278 -85 -304 -464 -41 -594 l50 -24 979 -3 c657 -2 983 1 990 8 7 7 -1 21 -24 45 l-34 35 21 28 c90 122 94 261 12 385 -38 58 -96 99 -169 121 -47 14 -150 16 -894 15 -722 0 -848 -3 -890 -16z" fill="#f8f9f8"/>
<path d="M6816 5953 c-102 -31 -183 -111 -212 -209 -12 -43 -14 -127 -12 -515 l3 -464 25 -50 c31 -64 92 -124 155 -156 l50 -24 979 -3 c657 -2 983 1 990 8 7 7 -1 21 -24 45 l-34 35 21 28 c11 15 31 48 44 72 l24 45 3 458 c3 506 2 518 -59 610 -38 58 -96 99 -169 121 -47 14 -150 16 -894 15 -722 0 -848 -3 -890 -16z" fill="#f8f9f8"/>
<path d="M10816 5953 c-211 -64 -291 -306 -164 -491 l30 -44 -32 -33 c-18 -18 -29 -38 -26 -44 5 -8 174 -11 565 -11 606 0 618 1 702 57 107 71 162 220 126 344 -33 113 -109 191 -217 223 -78 23 -909 23 -984 -1z" fill="#f8f9f8"/>
<path d="M12 5250 c0 -278 4 -491 8 -475 4 17 8 230 8 475 0 245 -4 459 -8 475 -4 17 -8 -197 -8 -475z" fill="#f8f9f8"/>
<path d="M416 5153 c-278 -85 -304 -464 -41 -594 l50 -24 579 -3 c390 -2 583 1 590 8 7 7 -1 21 -24 45 l-34 35 21 28 c90 122 94 261 12 385 -38 58 -96 99 -169 121 -78 23 -909 23 -984 -1z" fill="#f8f9f8"/>
<path d="M2016 5153 c-211 -64 -291 -306 -164 -491 l30 -44 -32 -33 c-18 -18 -29 -38 -26 -44 5 -7 62 -11 165 -11 172 0 234 12 302 57 107 71 162 220 126 344 -53 179 -227 276 -401 222z" fill="#f8f9f8"/>
<path d="M2826 5153 c-65 -19 -126 -62 -165 -115 -59 -80 -61 -97 -61 -589 0 -493 1 -498 62 -587 l30 -44 -33 -34 c-23 -23 -30 -37 -23 -44 7 -7 200 -10 590 -8 l579 3 63 34 c66 36 103 75 143 151 l24 45 3 459 c3 506 2 517 -59 609 -38 58 -96 99 -169 121 -78 23 -909 23 -984 -1z" fill="#f8f9f8"/>
<path d="M4416 5153 c-211 -64 -291 -306 -164 -491 l30 -44 -32 -33 c-18 -18 -29 -38 -26 -44 5 -8 286 -11 965 -11 1044 0 1014 -2 1102 57 72 47 126 140 135 231 12 107 -44 232 -130 291 -90 63 -66 61 -990 60 -722 0 -848 -3 -890 -16z" fill="#f8f9f8"/>
<path d="M9216 5153 c-278 -85 -304 -464 -41 -594 l50 -24 979 -3 c657 -2 983 1 990 8 7 7 -1 21 -24 45 l-34 35 21 28 c90 122 94 261 12 385 -38 58 -96 99 -169 121 -47 14 -150 16 -894 15 -722 0 -848 -3 -890 -16z" fill="#f8f9f8"/>
<path d="M11626 5153 c-211 -64 -291 -306 -164 -491 l30 -44 -32 -33 c-18 -18 -29 -38 -26 -44 5 -8 174 -11 565 -11 606 0 618 1 702 57 107 71 162 220 126 344 -33 113 -109 191 -217 223 -78 23 -909 23 -984 -1z" fill="#f8f9f8"/>
<path d="M426 4353 c-278 -85 -304 -464 -41 -593 46 -23 63 -25 229 -28 119 -2 182 0 189 7 8 8 1 21 -23 46 l-34 35 21 28 c90 122 95 260 12 385 -73 111 -220 161 -353 120z" fill="#f8f9f8"/>
<path d="M1226 4353 c-102 -31 -183 -111 -212 -209 -12 -43 -14 -127 -12 -515 l3 -464 25 -50 c31 -64 92 -124 155 -156 l50 -24 579 -3 c390 -2 583 1 590 8 7 7 -1 21 -24 45 l-34 35 21 28 c11 15 31 48 44 72 l24 45 3 458 c3 506 2 518 -59 610 -38 58 -96 99 -169 121 -78 23 -909 23 -984 -1z" fill="#f8f9f8"/>
<path d="M4426 4353 c-211 -64 -291 -306 -164 -491 l30 -44 -33 -34 c-23 -23 -30 -37 -23 -44 7 -7 200 -10 590 -8 l579 3 63 34 c134 73 199 222 159 362 -33 113 -109 191 -217 223 -78 23 -909 23 -984 -1z" fill="#f8f9f8"/>
<path d="M6016 4353 c-278 -85 -304 -463 -41 -593 l50 -25 579 -3 c388 -2 583 1 590 8 7 7 0 20 -22 43 l-33 34 36 58 c58 96 68 166 40 261 -32 109 -109 187 -215 218 -78 23 -909 23 -984 -1z" fill="#f8f9f8"/>
<path d="M7616 4353 c-211 -64 -291 -306 -164 -491 l30 -44 -33 -34 c-51 -52 -38 -57 167 -52 l179 3 63 34 c172 93 221 298 111 464 -73 111 -220 161 -353 120z" fill="#f8f9f8"/>
<path d="M8416 4353 c-211 -64 -291 -306 -164 -491 l30 -44 -33 -34 c-22 -23 -30 -37 -23 -44 7 -7 333 -10 990 -8 l979 3 63 34 c134 73 199 222 159 362 -21 72 -69 143 -121 178 -90 63 -66 61 -990 60 -722 0 -848 -3 -890 -16z" fill="#f8f9f8"/>
<path d="M10816 4353 c-102 -31 -183 -111 -212 -209 -12 -43 -14 -127 -12 -515 l3 -464 25 -50 c31 -64 92 -124 155 -156 l50 -24 579 -3 c390 -2 583 1 590 8 7 7 -1 21 -24 45 l-34 35 21 28 c11 15 31 48 44 72 l24 45 3 458 c3 506 2 518 -59 610 -38 58 -96 99 -169 121 -78 23 -909 23 -984 -1z" fill="#f8f9f8"/>
<path d="M12416 4353 c-211 -64 -291 -306 -164 -491 l30 -44 -32 -33 c-18 -18 -29 -38 -26 -44 5 -8 123 -11 382 -11 l374 0 0 320 0 320 -257 -1 c-201 0 -269 -4 -307 -16z" fill="#f8f9f8"/>
<path d="M12 4050 c0 -117 1 -122 13 -85 17 51 17 119 0 170 -12 37 -13 32 -13 -85z" fill="#f8f9f8"/>
<path d="M10 3250 l0 -320 394 0 c273 0 397 3 402 11 3 6 -9 26 -27 45 l-33 34 21 28 c90 122 94 261 12 385 -17 26 -50 61 -73 76 -79 55 -122 61 -423 61 l-273 0 0 -320z" fill="#f8f9f8"/>
<path d="M2835 3561 c-55 -14 -110 -45 -153 -89 -109 -108 -121 -277 -30 -410 l30 -44 -32 -33 c-18 -18 -29 -38 -26 -44 12 -18 311 -14 376 5 64 19 121 55 153 98 94 122 100 263 16 389 -68 103 -211 157 -334 128z" fill="#f8f9f8"/>
<path d="M3645 3561 c-89 -22 -180 -96 -218 -179 -22 -46 -22 -55 -22 -532 l0 -485 25 -50 c31 -64 92 -124 155 -156 l50 -24 979 -3 c657 -2 983 1 990 8 7 7 -1 21 -24 45 l-34 35 21 28 c11 15 31 48 44 72 l24 45 3 458 c3 506 2 518 -59 610 -38 58 -96 99 -169 121 -47 14 -150 16 -894 15 -463 -1 -854 -4 -871 -8z" fill="#f8f9f8"/>
<path d="M6035 3561 c-90 -22 -180 -96 -218 -179 -32 -70 -31 -198 3 -267 31 -64 92 -124 155 -156 l50 -24 979 -3 c657 -2 983 1 990 8 7 7 -1 21 -24 45 l-34 35 21 28 c90 122 94 261 12 385 -38 58 -96 99 -169 121 -47 14 -150 16 -894 15 -463 -1 -854 -4 -871 -8z" fill="#f8f9f8"/>
<path d="M10035 3561 c-90 -22 -180 -96 -218 -179 -32 -70 -31 -198 3 -267 31 -64 92 -124 155 -156 46 -22 63 -24 229 -27 205 -5 218 0 166 53 l-34 35 21 28 c90 122 94 261 12 385 -68 103 -211 157 -334 128z" fill="#f8f9f8"/>
<path d="M12435 3561 c-89 -22 -180 -96 -218 -179 -21 -46 -22 -59 -25 -512 -3 -513 -3 -517 60 -608 l30 -44 -32 -33 c-18 -18 -29 -38 -26 -44 5 -8 123 -11 382 -11 l374 0 0 720 0 720 -257 -1 c-142 -1 -271 -4 -288 -8z" fill="#f8f9f8"/>
<path d="M8416 3543 c-211 -64 -291 -306 -164 -491 l30 -44 -32 -33 c-18 -18 -29 -38 -26 -44 5 -8 174 -11 565 -11 606 0 618 1 702 57 107 71 162 220 126 344 -33 113 -109 191 -217 223 -78 23 -909 23 -984 -1z" fill="#f8f9f8"/>
<path d="M10 2450 l0 -320 273 0 c297 0 341 6 418 57 72 47 126 140 135 231 12 107 -44 232 -130 291 -79 55 -122 61 -423 61 l-273 0 0 -320z" fill="#f8f9f8"/>
<path d="M1226 2753 c-211 -64 -291 -306 -164 -491 l30 -44 -32 -33 c-18 -18 -29 -38 -26 -44 5 -8 286 -11 965 -11 1044 0 1014 -2 1102 57 72 47 126 140 135 231 12 107 -44 232 -130 291 -90 63 -66 61 -990 60 -722 0 -848 -3 -890 -16z" fill="#f8f9f8"/>
<path d="M6026 2753 c-65 -19 -126 -62 -165 -115 -59 -80 -61 -97 -61 -589 0 -493 1 -498 62 -587 l30 -44 -32 -33 c-18 -18 -29 -38 -26 -44 5 -8 174 -11 565 -11 479 0 565 2 611 16 95 28 148 74 201 174 l24 45 3 458 c3 506 2 518 -59 610 -38 58 -96 99 -169 121 -78 23 -909 23 -984 -1z" fill="#f8f9f8"/>
<path d="M7616 2753 c-278 -85 -304 -464 -41 -594 l50 -24 579 -3 c390 -2 583 1 590 8 7 7 -1 21 -24 45 l-34 35 21 28 c90 122 94 261 12 385 -38 58 -96 99 -169 121 -78 23 -909 23 -984 -1z" fill="#f8f9f8"/>
<path d="M9216 2753 c-211 -64 -291 -306 -164 -491 l30 -44 -32 -33 c-18 -18 -29 -38 -26 -44 5 -7 62 -11 165 -11 172 0 234 12 302 57 107 71 162 220 126 344 -53 179 -227 276 -401 222z" fill="#f8f9f8"/>
<path d="M10016 2753 c-211 -64 -291 -306 -164 -491 l30 -44 -32 -33 c-18 -18 -29 -38 -26 -44 5 -8 286 -11 965 -11 1044 0 1014 -2 1102 57 72 47 126 140 135 231 12 107 -44 232 -130 291 -90 63 -66 61 -990 60 -722 0 -848 -3 -890 -16z" fill="#f8f9f8"/>
<path d="M426 1953 c-65 -19 -126 -62 -165 -115 -59 -80 -61 -97 -61 -589 0 -493 1 -498 62 -587 l30 -44 -32 -33 c-18 -18 -29 -38 -26 -44 5 -8 174 -11 565 -11 479 0 565 2 611 16 95 28 148 74 201 174 l24 45 3 458 c3 506 2 518 -59 610 -38 58 -96 99 -169 121 -78 23 -909 23 -984 -1z" fill="#f8f9f8"/>
<path d="M2016 1953 c-211 -64 -291 -306 -164 -491 l30 -44 -32 -33 c-18 -18 -29 -38 -26 -44 5 -8 174 -11 565 -11 606 0 618 1 702 57 107 71 162 220 126 344 -33 113 -109 191 -217 223 -78 23 -909 23 -984 -1z" fill="#f8f9f8"/>
<path d="M3626 1953 c-211 -64 -291 -306 -164 -491 l30 -44 -32 -33 c-18 -18 -29 -38 -26 -44 5 -8 286 -11 965 -11 1044 0 1014 -2 1102 57 72 47 126 140 135 231 12 107 -44 232 -130 291 -90 63 -66 61 -990 60 -722 0 -848 -3 -890 -16z" fill="#f8f9f8"/>
<path d="M7626 1953 c-211 -64 -291 -306 -164 -491 l30 -44 -32 -33 c-18 -18 -29 -38 -26 -44 5 -7 62 -11 165 -11 172 0 234 12 302 57 107 71 162 220 126 344 -53 179 -227 276 -401 222z" fill="#f8f9f8"/>
<path d="M8416 1953 c-102 -31 -183 -111 -212 -209 -12 -43 -14 -127 -12 -515 l3 -464 25 -50 c31 -64 92 -124 155 -156 l50 -24 579 -3 c390 -2 583 1 590 8 7 7 -1 21 -24 45 l-34 35 21 28 c11 15 31 48 44 72 l24 45 3 458 c3 506 2 518 -59 610 -38 58 -96 99 -169 121 -78 23 -909 23 -984 -1z" fill="#f8f9f8"/>
<path d="M10016 1953 c-278 -85 -304 -464 -41 -594 l50 -24 579 -3 c390 -2 583 1 590 8 7 7 -1 21 -24 45 l-34 35 21 28 c90 122 94 261 12 385 -38 58 -96 99 -169 121 -78 23 -909 23 -984 -1z" fill="#f8f9f8"/>
<path d="M11616 1953 c-211 -64 -291 -306 -164 -491 l30 -44 -32 -33 c-18 -18 -29 -38 -26 -44 5 -8 235 -11 782 -11 l774 0 0 320 0 320 -657 -1 c-559 0 -665 -3 -707 -16z" fill="#f8f9f8"/>
<path d="M13 1650 c0 -99 0 -102 10 -52 7 35 7 69 0 105 -10 49 -10 46 -10 -53z" fill="#f8f9f8"/>
<path d="M2026 1153 c-65 -19 -126 -62 -165 -115 -59 -80 -61 -96 -61 -590 l0 -448 720 0 720 0 0 443 c0 487 -1 500 -61 590 -38 58 -96 99 -169 121 -78 23 -909 23 -984 -1z" fill="#f8f9f8"/>
<path d="M3626 1153 c-278 -85 -304 -464 -41 -594 l50 -24 579 -3 c390 -2 583 1 590 8 7 7 -1 21 -24 45 l-34 35 21 28 c90 122 94 261 12 385 -38 58 -96 99 -169 121 -78 23 -909 23 -984 -1z" fill="#f8f9f8"/>
<path d="M5226 1153 c-211 -64 -291 -306 -164 -491 l30 -44 -32 -33 c-18 -18 -29 -38 -26 -44 5 -7 62 -11 165 -11 172 0 234 12 302 57 107 71 162 220 126 344 -53 179 -227 276 -401 222z" fill="#f8f9f8"/>
<path d="M6016 1153 c-278 -85 -304 -464 -41 -594 l50 -24 979 -3 c657 -2 983 1 990 8 7 7 -1 21 -24 45 l-34 35 21 28 c90 122 94 261 12 385 -38 58 -96 99 -169 121 -47 14 -150 16 -894 15 -722 0 -848 -3 -890 -16z" fill="#f8f9f8"/>
<path d="M10016 1153 c-211 -64 -291 -306 -164 -491 l30 -44 -32 -33 c-18 -18 -29 -38 -26 -44 5 -7 62 -11 165 -11 172 0 234 12 302 57 107 71 162 220 126 344 -53 179 -227 276 -401 222z" fill="#f8f9f8"/>
<path d="M10816 1153 c-65 -19 -126 -62 -165 -115 -59 -80 -61 -96 -61 -590 l0 -448 720 0 720 0 0 443 c0 487 -1 500 -61 590 -38 58 -96 99 -169 121 -78 23 -909 23 -984 -1z" fill="#f8f9f8"/>
<path d="M12416 1153 c-278 -85 -304 -464 -41 -594 49 -23 56 -24 328 -27 l277 -3 0 320 0 321 -257 -1 c-201 0 -269 -4 -307 -16z" fill="#f8f9f8"/>
<path d="M13 850 c0 -99 0 -102 10 -52 7 35 7 69 0 105 -10 49 -10 46 -10 -53z" fill="#f8f9f8"/>
<path d="M10 185 l0 -185 815 0 815 0 0 43 c0 98 -58 214 -134 266 -89 61 -84 61 -823 61 l-673 0 0 -185z" fill="#f8f9f8"/>
<path d="M4445 361 c-90 -22 -181 -97 -217 -179 -12 -26 -23 -77 -26 -114 l-5 -68 1122 0 1121 0 0 43 c0 98 -58 214 -134 266 -90 63 -66 61 -990 60 -463 -1 -854 -4 -871 -8z" fill="#f8f9f8"/>
<path d="M6835 361 c-90 -22 -181 -97 -217 -179 -12 -26 -23 -77 -26 -114 l-5 -68 722 0 721 0 0 43 c0 98 -58 214 -134 266 -85 59 -106 61 -590 60 -243 -1 -454 -4 -471 -8z" fill="#f8f9f8"/>
<path d="M8435 361 c-90 -22 -181 -97 -217 -179 -12 -26 -23 -77 -26 -114 l-5 -68 1122 0 1121 0 0 43 c0 98 -58 214 -134 266 -90 63 -66 61 -990 60 -463 -1 -854 -4 -871 -8z" fill="#f8f9f8"/>
<path d="M12435 361 c-90 -22 -181 -97 -217 -179 -12 -26 -23 -77 -26 -114 l-5 -68 322 0 321 0 0 43 c0 98 -58 214 -134 266 -74 51 -178 72 -261 52z" fill="#f8f9f8"/>
<path d="M3626 343 c-134 -40 -226 -163 -226 -300 l0 -43 320 0 320 0 0 38 c0 55 -25 131 -61 185 -73 111 -221 161 -353 120z" fill="#f8f9f8"/>
</g>
</svg>